<svg width="20" height="18" viewBox="0 0 15 12" fill="none" xmlns="http://www.w3.org/2000/svg">
<path d="M6.75 9V0.75C6.75 0.551088 6.82902 0.360322 6.96967 0.21967C7.11032 0.0790176 7.30109 0 7.5 0C7.69891 0 7.88968 0.0790176 8.03033 0.21967C8.17098 0.360322 8.25 0.551088 8.25 0.75V9H9C9.19891 9 9.38968 9.07902 9.53033 9.21967C9.67098 9.36032 9.75 9.55109 9.75 9.75C9.75 9.94891 9.67098 10.1397 9.53033 10.2803C9.38968 10.421 9.19891 10.5 9 10.5H8.25V11.25C8.25 11.4489 8.17098 11.6397 8.03033 11.7803C7.88968 11.921 7.69891 12 7.5 12C7.30109 12 7.11032 11.921 6.96967 11.7803C6.82902 11.6397 6.75 11.4489 6.75 11.25V10.5H6C5.80109 10.5 5.61032 10.421 5.46967 10.2803C5.32902 10.1397 5.25 9.94891 5.25 9.75C5.25 9.55109 5.32902 9.36032 5.46967 9.21967C5.61032 9.07902 5.80109 9 6 9H6.75ZM12 1.5V0.75C12 0.551088 12.079 0.360322 12.2197 0.21967C12.3603 0.0790176 12.5511 0 12.75 0C12.9489 0 13.1397 0.0790176 13.2803 0.21967C13.421 0.360322 13.5 0.551088 13.5 0.75V1.5H14.25C14.4489 1.5 14.6397 1.57902 14.7803 1.71967C14.921 1.86032 15 2.05109 15 2.25C15 2.44891 14.921 2.63968 14.7803 2.78033C14.6397 2.92098 14.4489 3 14.25 3H13.5V11.25C13.5 11.4489 13.421 11.6397 13.2803 11.7803C13.1397 11.921 12.9489 12 12.75 12C12.5511 12 12.3603 11.921 12.2197 11.7803C12.079 11.6397 12 11.4489 12 11.25V3H11.25C11.0511 3 10.8603 2.92098 10.7197 2.78033C10.579 2.63968 10.5 2.44891 10.5 2.25C10.5 2.05109 10.579 1.86032 10.7197 1.71967C10.8603 1.57902 11.0511 1.5 11.25 1.5H12ZM3 3.75H3.75C3.94891 3.75 4.13968 3.82902 4.28033 3.96967C4.42098 4.11032 4.5 4.30109 4.5 4.5C4.5 4.69891 4.42098 4.88968 4.28033 5.03033C4.13968 5.17098 3.94891 5.25 3.75 5.25H3V11.25C3 11.4489 2.92098 11.6397 2.78033 11.7803C2.63968 11.921 2.44891 12 2.25 12C2.05109 12 1.86032 11.921 1.71967 11.7803C1.57902 11.6397 1.5 11.4489 1.5 11.25V5.25H0.75C0.551088 5.25 0.360322 5.17098 0.21967 5.03033C0.0790176 4.88968 0 4.69891 0 4.5C0 4.30109 0.0790176 4.11032 0.21967 3.96967C0.360322 3.82902 0.551088 3.75 0.75 3.75H1.5V0.75C1.5 0.551088 1.57902 0.360322 1.71967 0.21967C1.86032 0.0790176 2.05109 0 2.25 0C2.44891 0 2.63968 0.0790176 2.78033 0.21967C2.92098 0.360322 3 0.551088 3 0.75V3.75Z" fill="#272440"/>
</svg>
