<svg width="18" height="18" viewBox="0 0 18 18" fill="none" xmlns="http://www.w3.org/2000/svg">
<path fill-rule="evenodd" clip-rule="evenodd" d="M2.604 0.25C2.00727 0.25 1.43497 0.487053 1.01301 0.90901C0.591057 1.33097 0.354004 1.90326 0.354004 2.5V6C0.354004 6.59674 0.591057 7.16903 1.01301 7.59099C1.43497 8.01295 2.00727 8.25 2.604 8.25H6.104C6.70074 8.25 7.27304 8.01295 7.69499 7.59099C8.11695 7.16903 8.354 6.59674 8.354 6V2.5C8.354 1.90326 8.11695 1.33097 7.69499 0.90901C7.27304 0.487053 6.70074 0.25 6.104 0.25H2.604ZM1.854 2.5C1.854 2.30109 1.93302 2.11032 2.07367 1.96967C2.21433 1.82902 2.40509 1.75 2.604 1.75H6.104C6.30292 1.75 6.49368 1.82902 6.63433 1.96967C6.77499 2.11032 6.854 2.30109 6.854 2.5V6C6.854 6.19891 6.77499 6.38968 6.63433 6.53033C6.49368 6.67098 6.30292 6.75 6.104 6.75H2.604C2.40509 6.75 2.21433 6.67098 2.07367 6.53033C1.93302 6.38968 1.854 6.19891 1.854 6V2.5ZM2.604 9.75C2.00727 9.75 1.43497 9.98705 1.01301 10.409C0.591057 10.831 0.354004 11.4033 0.354004 12V15.5C0.354004 16.0967 0.591057 16.669 1.01301 17.091C1.43497 17.5129 2.00727 17.75 2.604 17.75H6.104C6.70074 17.75 7.27304 17.5129 7.69499 17.091C8.11695 16.669 8.354 16.0967 8.354 15.5V12C8.354 11.4033 8.11695 10.831 7.69499 10.409C7.27304 9.98705 6.70074 9.75 6.104 9.75H2.604ZM1.854 12C1.854 11.8011 1.93302 11.6103 2.07367 11.4697C2.21433 11.329 2.40509 11.25 2.604 11.25H6.104C6.30292 11.25 6.49368 11.329 6.63433 11.4697C6.77499 11.6103 6.854 11.8011 6.854 12V15.5C6.854 15.6989 6.77499 15.8897 6.63433 16.0303C6.49368 16.171 6.30292 16.25 6.104 16.25H2.604C2.40509 16.25 2.21433 16.171 2.07367 16.0303C1.93302 15.8897 1.854 15.6989 1.854 15.5V12ZM9.854 2.5C9.854 1.90326 10.0911 1.33097 10.513 0.90901C10.935 0.487053 11.5073 0.25 12.104 0.25H15.604C16.2007 0.25 16.773 0.487053 17.195 0.90901C17.617 1.33097 17.854 1.90326 17.854 2.5V6C17.854 6.59674 17.617 7.16903 17.195 7.59099C16.773 8.01295 16.2007 8.25 15.604 8.25H12.104C11.5073 8.25 10.935 8.01295 10.513 7.59099C10.0911 7.16903 9.854 6.59674 9.854 6V2.5ZM12.104 1.75C11.9051 1.75 11.7143 1.82902 11.5737 1.96967C11.433 2.11032 11.354 2.30109 11.354 2.5V6C11.354 6.414 11.689 6.75 12.104 6.75H15.604C15.8029 6.75 15.9937 6.67098 16.1343 6.53033C16.275 6.38968 16.354 6.19891 16.354 6V2.5C16.354 2.30109 16.275 2.11032 16.1343 1.96967C15.9937 1.82902 15.8029 1.75 15.604 1.75H12.104ZM12.104 9.75C11.5073 9.75 10.935 9.98705 10.513 10.409C10.0911 10.831 9.854 11.4033 9.854 12V15.5C9.854 16.0967 10.0911 16.669 10.513 17.091C10.935 17.5129 11.5073 17.75 12.104 17.75H15.604C16.2007 17.75 16.773 17.5129 17.195 17.091C17.617 16.669 17.854 16.0967 17.854 15.5V12C17.854 11.4033 17.617 10.831 17.195 10.409C16.773 9.98705 16.2007 9.75 15.604 9.75H12.104ZM11.354 12C11.354 11.8011 11.433 11.6103 11.5737 11.4697C11.7143 11.329 11.9051 11.25 12.104 11.25H15.604C15.8029 11.25 15.9937 11.329 16.1343 11.4697C16.275 11.6103 16.354 11.8011 16.354 12V15.5C16.354 15.6989 16.275 15.8897 16.1343 16.0303C15.9937 16.171 15.8029 16.25 15.604 16.25H12.104C11.9051 16.25 11.7143 16.171 11.5737 16.0303C11.433 15.8897 11.354 15.6989 11.354 15.5V12Z" fill="#968BBF"/>
</svg>
